<svg xmlns="http://www.w3.org/2000/svg" viewBox="0 0 300 64" role="img" aria-label="NextGenPay — PG, POS, QR Payments">
  <defs>
    <linearGradient id="llBg" x1="0" y1="0" x2="1" y2="1">
      <stop offset="0%" stop-color="#1a1a2e"/>
      <stop offset="55%" stop-color="#16213e"/>
      <stop offset="100%" stop-color="#0f3460"/>
    </linearGradient>
    <linearGradient id="llBolt" x1="0" y1="0" x2="1" y2="1">
      <stop offset="0%" stop-color="#e94560"/>
      <stop offset="100%" stop-color="#d4a843"/>
    </linearGradient>
    <linearGradient id="llShine" x1="0" y1="0" x2="0" y2="1">
      <stop offset="0%" stop-color="#ffffff" stop-opacity="0.18"/>
      <stop offset="55%" stop-color="#ffffff" stop-opacity="0"/>
    </linearGradient>
    <linearGradient id="llAccent" x1="0" y1="0" x2="1" y2="0">
      <stop offset="0%" stop-color="#f7aab9"/>
      <stop offset="100%" stop-color="#f0d68a"/>
    </linearGradient>
  </defs>

  <g>
    <rect width="64" height="64" rx="14" fill="url(#llBg)"/>
    <rect width="64" height="64" rx="14" fill="url(#llShine)"/>
    <g transform="translate(15 20.3) scale(1.0625)">
      <path fill-rule="evenodd" clip-rule="evenodd" d="M0.00172773 0V6.85398C0.00172773 6.85398 -0.133178 9.01207 1.98092 10.8388L13.6912 21.9964L19.7809 21.9181L18.8042 9.88248L16.4951 7.17289L9.23799 0H0.00172773Z" fill="url(#llBolt)"/>
      <path fill-rule="evenodd" clip-rule="evenodd" d="M7.77295 16.3566L23.6563 0H32V6.88383C32 6.88383 31.8262 9.17836 30.6591 10.4057L19.7824 22H13.6938L7.77295 16.3566Z" fill="#ffffff"/>
    </g>
  </g>

  <g transform="translate(78, 0)" font-family="Manrope, 'Segoe UI', system-ui, sans-serif">
    <text x="0" y="34" font-size="26" font-weight="800" letter-spacing="-0.6" fill="#ffffff">
      NextGen<tspan fill="url(#llAccent)">Pay</tspan>
    </text>
    <text x="2" y="52" font-size="9.5" font-weight="600" letter-spacing="3.2" fill="#a4b3c8">
      PG &#183; POS &#183; QR PAYMENTS
    </text>
  </g>
</svg>
